<?xml version="1.0" encoding="UTF-8" standalone="no"?>
<!-- Created with Inkscape (http://www.inkscape.org/) -->

<svg
   xmlns:dc="http://purl.org/dc/elements/1.1/"
   xmlns:cc="http://creativecommons.org/ns#"
   xmlns:rdf="http://www.w3.org/1999/02/22-rdf-syntax-ns#"
   xmlns:svg="http://www.w3.org/2000/svg"
   xmlns="http://www.w3.org/2000/svg"
   xmlns:sodipodi="http://sodipodi.sourceforge.net/DTD/sodipodi-0.dtd"
   xmlns:inkscape="http://www.inkscape.org/namespaces/inkscape"
   width="50.274143mm"
   height="44.086777mm"
   viewBox="0 0 50.274143 44.086777"
   version="1.1"
   id="svg8"
   sodipodi:docname="aries-logo.svg"
   inkscape:version="0.92.4 (5da689c313, 2019-01-14)">
  <defs
     id="defs2" />
  <sodipodi:namedview
     id="base"
     pagecolor="#ffffff"
     bordercolor="#666666"
     borderopacity="1.0"
     inkscape:pageopacity="0.0"
     inkscape:pageshadow="2"
     inkscape:zoom="0.35"
     inkscape:cx="343.21736"
     inkscape:cy="-354.40996"
     inkscape:document-units="px"
     inkscape:current-layer="layer1"
     showgrid="false"
     inkscape:window-width="1918"
     inkscape:window-height="1000"
     inkscape:window-x="1023"
     inkscape:window-y="0"
     inkscape:window-maximized="0"
     fit-margin-top="0"
     fit-margin-left="0"
     fit-margin-right="0"
     fit-margin-bottom="0" />
  <metadata
     id="metadata5">
    <rdf:RDF>
      <cc:Work
         rdf:about="">
        <dc:format>image/svg+xml</dc:format>
        <dc:type
           rdf:resource="http://purl.org/dc/dcmitype/StillImage" />
        <dc:title></dc:title>
      </cc:Work>
    </rdf:RDF>
  </metadata>
  <g
     inkscape:label="Layer 1"
     inkscape:groupmode="layer"
     id="layer1"
     transform="translate(-15.023741,-10.975589)">
    <g
       id="g21"
       transform="matrix(3.7546666,0,0,3.9416991,-290.37009,-446.2776)">
      <path
         style="fill:#000000;stroke-width:0.06877571"
         d="m 88.696632,126.8864 c -0.84811,-1.06523 -1.201339,-1.91332 -1.208539,-2.90165 -0.006,-0.78014 0.115509,-1.23693 0.584339,-2.20249 0.19159,-0.39457 0.3688,-0.80802 0.3938,-0.91878 0.0891,-0.39479 0.095,-0.40044 0.26453,-0.25284 0.24641,0.21455 0.53033,0.32589 1.22246,0.47941 1.07847,0.23922 1.49395,0.1804 1.88962,-0.26752 l 0.18868,-0.21359 0.28373,0.26152 c 0.51401,0.47376 0.59203,0.72816 0.80067,2.61086 0.0614,0.55378 0.14394,1.10387 0.18349,1.22243 0.0615,0.18434 0.0455,0.25852 -0.11064,0.51227 -0.35426,0.57582 -0.66568,0.78199 -1.04443,0.69144 -0.0885,-0.0211 -0.54034,-0.31539 -1.00417,-0.65387 -0.92532,-0.67525 -1.21277,-0.82271 -1.47947,-0.75894 -0.23417,0.056 -0.62443,0.49802 -0.72667,0.82309 -0.0952,0.30252 -0.1027,1.11798 -0.0144,1.55335 0.0337,0.16614 0.0542,0.30895 0.0455,0.31737 -0.009,0.008 -0.12953,-0.12751 -0.2685,-0.30206 z m 2.57514,-3.97499 c 0.0324,-0.0288 0.01,-0.14283 -0.0503,-0.25343 -0.27618,-0.50871 -1.30473,-1.02562 -1.42866,-0.71798 -0.0548,0.13602 0.15621,0.65498 0.32574,0.80112 0.2966,0.25568 0.94893,0.352 1.15324,0.17029 z m -0.69306,-0.1461 c -0.22969,-0.12101 -0.45804,-0.34101 -0.45804,-0.44129 0,-0.079 0.27036,0.0921 0.73638,0.46592 0.10055,0.0807 -0.11464,0.0616 -0.27834,-0.0246 z m -6.910049,0.82485 c -0.71959,-0.17718 -1.531845,-0.86464 -1.927785,-1.6316 -0.822105,-1.59247 -0.352116,-3.70263 1.077035,-4.83571 0.44302,-0.35123 1.37068,-0.81176 1.80118,-0.89417 l 0.24156,-0.0462 -0.21375,0.25967 c -0.26615,0.32335 -0.37507,0.51848 -0.37507,0.67198 0,0.09 0.0731,0.0526 0.29949,-0.15307 0.40961,-0.37221 0.68886,-0.51945 1.43942,-0.75898 0.62282,-0.19876 1.11138,-0.24956 1.39232,-0.14477 0.11077,0.0413 0.0337,0.0998 -0.41084,0.31194 -0.73597,0.35117 -0.98846,0.62542 -1.09071,1.18469 -0.0437,0.23883 -0.0794,0.49304 -0.0794,0.56491 0,0.11009 -0.0783,0.14242 -0.4971,0.20524 -1.5478,0.23215 -2.6447,1.47122 -2.51437,2.84027 0.043,0.45214 0.26353,0.96364 0.53125,1.23238 0.65994,0.66247 1.78007,0.56867 2.15319,-0.18031 0.16203,-0.32524 0.14829,-0.86096 -0.0306,-1.19506 -0.20657,-0.38571 -0.0167,-0.30228 0.25197,0.11072 0.18286,0.28108 0.21141,0.38913 0.21141,0.80012 0,0.70929 -0.31308,1.20544 -0.95859,1.51913 -0.3054,0.14841 -0.97252,0.21963 -1.30058,0.13886 z m 9.552589,-1.8832 c 0,-0.30083 -0.1656,-0.67926 -0.39622,-0.90546 l -0.23239,-0.22793 0.22622,-0.272 c 0.54748,-0.65826 1.04904,-0.78409 1.60269,-0.40206 l 0.30536,0.21071 -0.32311,0.15642 c -0.41545,0.20112 -0.71042,0.54581 -0.90689,1.05975 -0.18166,0.47521 -0.27566,0.60498 -0.27566,0.38057 z m -3.10526,-0.9367 c -0.55869,-0.17029 -0.77869,-0.31162 -1.03952,-0.66778 l -0.22921,-0.31299 0.37245,-0.0437 c 0.20484,-0.024 0.56271,-0.0469 0.79525,-0.0507 0.54863,-0.009 0.89519,-0.10419 1.16351,-0.31925 0.11911,-0.0955 0.22561,-0.16228 0.23667,-0.14845 0.0111,0.0138 0.0605,0.12187 0.10989,0.24011 0.0802,0.19209 0.0735,0.23675 -0.063,0.41937 -0.084,0.11241 -0.29212,0.29571 -0.46243,0.40732 -0.20357,0.13342 -0.29595,0.23695 -0.26965,0.30222 0.0559,0.13888 0.16488,0.12483 0.55189,-0.0712 0.18511,-0.0937 0.35262,-0.15517 0.37223,-0.13649 0.0196,0.0187 -0.0764,0.14071 -0.21332,0.27115 -0.21833,0.20797 -0.29106,0.23673 -0.59075,0.23356 -0.18798,-0.002 -0.51828,-0.0574 -0.73402,-0.12317 z m -1.69671,-1.54157 c -0.47726,-0.47862 -1.079329,-0.77474 -1.808339,-0.88942 -0.58695,-0.0923 -0.56504,-0.0404 -0.39355,-0.93326 l 0.11339,-0.59037 0.57534,-0.0234 c 0.47655,-0.0194 0.655189,-0.0608 1.040359,-0.24152 0.25576,-0.11998 0.48898,-0.21815 0.51826,-0.21815 0.0293,0 0.22742,0.0949 0.44031,0.21095 l 0.38706,0.21094 -0.36926,0.22179 c -0.2031,0.12198 -0.46062,0.24089 -0.57228,0.26425 -0.23578,0.0493 -0.25978,0.13239 -0.0667,0.23082 0.23909,0.12189 0.60701,0.0753 1.0341,-0.13104 0.22832,-0.11029 0.44683,-0.19977 0.48559,-0.19885 0.0388,9.2e-4 0.19731,0.10735 0.35234,0.23651 l 0.28187,0.23484 -0.27031,0.22783 c -0.14867,0.1253 -0.4171,0.29355 -0.59651,0.37388 -0.3112,0.13934 -0.31983,0.15061 -0.18773,0.24494 0.22254,0.15893 0.76082,0.0786 1.12881,-0.1685 l 0.31031,-0.20835 0.17767,0.28878 c 0.0977,0.15883 0.17767,0.32135 0.17767,0.36115 0,0.14078 -0.5751,0.5036 -1.04196,0.65737 -0.2602,0.0857 -0.66336,0.17422 -0.8959,0.19673 l -0.42281,0.0409 z"
         id="path48"
         inkscape:connector-curvature="0" />
    </g>
  </g>
</svg>
